	solid ASCII	
	  facet normal 0.000000e+00 0.000000e+00 -2.800000E-1	
	    outer loop	
	      vertex   2.800000E-1 0.000000e+00 -2.280000E-1	
	      vertex   0.000000e+00 0.000000e+00 -2.280000E-1	
	      vertex   2.800000E-1 3.280000E-1 -2.280000E-1	
	    endloop	
	  endfacet	
	  facet normal -0.000000e+00 0.000000e+00 -2.800000E-1	
	    outer loop	
	      vertex   2.800000E-1 3.280000E-1 -2.280000E-1	
	      vertex   0.000000e+00 0.000000e+00 -2.280000E-1	
	      vertex   0.000000e+00 3.280000E-1 -2.280000E-1	
	    endloop	
	  endfacet	
	  facet normal 2.800000E-1 -0.000000e+00 0.000000e+00	
	    outer loop	
	      vertex   2.800000E-1 0.000000e+00 0.000000e+00	
	      vertex   2.800000E-1 0.000000e+00 -2.280000E-1	
	      vertex   2.800000E-1 3.280000E-1 0.000000e+00	
	    endloop	
	  endfacet	
	  facet normal 2.800000E-1 0.000000e+00 0.000000e+00	
	    outer loop	
	      vertex   2.800000E-1 3.280000E-1 0.000000e+00	
	      vertex   2.800000E-1 0.000000e+00 -2.280000E-1	
	      vertex   2.800000E-1 3.280000E-1 -2.280000E-1	
	    endloop	
	  endfacet	
	  facet normal 0.000000e+00 0.000000e+00 2.800000E-1	
	    outer loop	
	      vertex   0.000000e+00 0.000000e+00 0.000000e+00	
	      vertex   2.800000E-1 0.000000e+00 0.000000e+00	
	      vertex   0.000000e+00 3.280000E-1 0.000000e+00	
	    endloop	
	  endfacet	
	  facet normal -0.000000e+00 0.000000e+00 2.800000E-1	
	    outer loop	
	      vertex   0.000000e+00 3.280000E-1 0.000000e+00	
	      vertex   2.800000E-1 0.000000e+00 0.000000e+00	
	      vertex   2.800000E-1 3.280000E-1 0.000000e+00	
	    endloop	
	  endfacet	
	  facet normal -2.800000E-1 0.000000e+00 0.000000e+00	
	    outer loop	
	      vertex   0.000000e+00 0.000000e+00 -2.280000E-1	
	      vertex   0.000000e+00 0.000000e+00 0.000000e+00	
	      vertex   0.000000e+00 3.280000E-1 -2.280000E-1	
	    endloop	
	  endfacet	
	  facet normal -2.800000E-1 0.000000e+00 0.000000e+00	
	    outer loop	
	      vertex   0.000000e+00 3.280000E-1 -2.280000E-1	
	      vertex   0.000000e+00 0.000000e+00 0.000000e+00	
	      vertex   0.000000e+00 3.280000E-1 0.000000e+00	
	    endloop	
	  endfacet	
	  facet normal 0.000000e+00 2.800000E-1 -0.000000e+00	
	    outer loop	
	      vertex   0.000000e+00 3.280000E-1 -2.280000E-1	
	      vertex   0.000000e+00 3.280000E-1 0.000000e+00	
	      vertex   2.800000E-1 3.280000E-1 -2.280000E-1	
	    endloop	
	  endfacet	
	  facet normal 0.000000e+00 2.800000E-1 0.000000e+00	
	    outer loop	
	      vertex   2.800000E-1 3.280000E-1 -2.280000E-1	
	      vertex   0.000000e+00 3.280000E-1 0.000000e+00	
	      vertex   2.800000E-1 3.280000E-1 0.000000e+00	
	    endloop	
	  endfacet	
	  facet normal 0.000000e+00 -2.800000E-1 0.000000e+00	
	    outer loop	
	      vertex   0.000000e+00 0.000000e+00 -2.280000E-1	
	      vertex   2.800000E-1 0.000000e+00 -2.280000E-1	
	      vertex   0.000000e+00 0.000000e+00 0.000000e+00	
	    endloop	
	  endfacet	
	  facet normal 0.000000e+00 -2.800000E-1 0.000000e+00	
	    outer loop	
	      vertex   0.000000e+00 0.000000e+00 0.000000e+00	
	      vertex   2.800000E-1 0.000000e+00 -2.280000E-1	
	      vertex   2.800000E-1 0.000000e+00 0.000000e+00	
	    endloop	
	  endfacet	
	endsolid	
