solid ASCII
  facet normal 0.000000e+00 0.000000e+00 -5.000000e+0
    outer loop
      vertex   5.000000e+0 0.000000e+00 -4.000000e+0
      vertex   0.000000e+00 0.000000e+00 -4.000000e+0
      vertex   5.000000e+0 3.000000e+0 -4.000000e+0
    endloop
  endfacet
  facet normal -0.000000e+00 0.000000e+00 -5.000000e+0
    outer loop
      vertex   5.000000e+0 3.000000e+0 -4.000000e+0
      vertex   0.000000e+00 0.000000e+00 -4.000000e+0
      vertex   0.000000e+00 3.000000e+0 -4.000000e+0
    endloop
  endfacet
  facet normal 5.000000e+0 -0.000000e+00 0.000000e+00
    outer loop
      vertex   5.000000e+0 0.000000e+00 0.000000e+00
      vertex   5.000000e+0 0.000000e+00 -4.000000e+0
      vertex   5.000000e+0 3.000000e+0 0.000000e+00
    endloop
  endfacet
  facet normal 5.000000e+0 0.000000e+00 0.000000e+00
    outer loop
      vertex   5.000000e+0 3.000000e+0 0.000000e+00
      vertex   5.000000e+0 0.000000e+00 -4.000000e+0
      vertex   5.000000e+0 3.000000e+0 -4.000000e+0
    endloop
  endfacet
  facet normal 0.000000e+00 0.000000e+00 5.000000e+0
    outer loop
      vertex   0.000000e+00 0.000000e+00 0.000000e+00
      vertex   5.000000e+0 0.000000e+00 0.000000e+00
      vertex   0.000000e+00 3.000000e+0 0.000000e+00
    endloop
  endfacet
  facet normal -0.000000e+00 0.000000e+00 5.000000e+0
    outer loop
      vertex   0.000000e+00 3.000000e+0 0.000000e+00
      vertex   5.000000e+0 0.000000e+00 0.000000e+00
      vertex   5.000000e+0 3.000000e+0 0.000000e+00
    endloop
  endfacet
  facet normal -5.000000e+0 0.000000e+00 0.000000e+00
    outer loop
      vertex   0.000000e+00 0.000000e+00 -4.000000e+0
      vertex   0.000000e+00 0.000000e+00 0.000000e+00
      vertex   0.000000e+00 3.000000e+0 -4.000000e+0
    endloop
  endfacet
  facet normal -5.000000e+0 0.000000e+00 0.000000e+00
    outer loop
      vertex   0.000000e+00 3.000000e+0 -4.000000e+0
      vertex   0.000000e+00 0.000000e+00 0.000000e+00
      vertex   0.000000e+00 3.000000e+0 0.000000e+00
    endloop
  endfacet
  facet normal 0.000000e+00 5.000000e+0 -0.000000e+00
    outer loop
      vertex   0.000000e+00 3.000000e+0 -4.000000e+0
      vertex   0.000000e+00 3.000000e+0 0.000000e+00
      vertex   5.000000e+0 3.000000e+0 -4.000000e+0
    endloop
  endfacet
  facet normal 0.000000e+00 5.000000e+0 0.000000e+00
    outer loop
      vertex   5.000000e+0 3.000000e+0 -4.000000e+0
      vertex   0.000000e+00 3.000000e+0 0.000000e+00
      vertex   5.000000e+0 3.000000e+0 0.000000e+00
    endloop
  endfacet
  facet normal 0.000000e+00 -5.000000e+0 0.000000e+00
    outer loop
      vertex   0.000000e+00 0.000000e+00 -4.000000e+0
      vertex   5.000000e+0 0.000000e+00 -4.000000e+0
      vertex   0.000000e+00 0.000000e+00 0.000000e+00
    endloop
  endfacet
  facet normal 0.000000e+00 -5.000000e+0 0.000000e+00
    outer loop
      vertex   0.000000e+00 0.000000e+00 0.000000e+00
      vertex   5.000000e+0 0.000000e+00 -4.000000e+0
      vertex   5.000000e+0 0.000000e+00 0.000000e+00
    endloop
  endfacet
endsolid
